<?xml version="1.0" ?><svg xmlns="http://www.w3.org/2000/svg" id="Backpack" viewBox="0 0 64 64"><path d="M11.296875,63c-3.02001953,0-5.57910156-2.25927734-5.95361328-5.25585938l-1.34326172-10.74414062,7-6,5,22h-4.703125Z" style="fill:#ffcd7d; stroke-width:0px;"/><path d="M48,63l5-22,7,6-1.34326172,10.74414062c-.37451172,2.99658203-2.93359375,5.25585938-5.95361328,5.25585938h-4.703125Z" style="fill:#ffcd7d; stroke-width:0px;"/><path d="M4.26464844,48.10888672c-.43994141,0-.81738281-.05517578-1.12207031-.1640625-.49462891-.17724609-.84228516-.49511719-1.03271484-.9453125-.74804688-1.76660156,2.90771484-5.46728516,8.89013672-8.99902344v7.99951172c-.41113281.21582031-4.09423828,2.10888672-6.73535156,2.10888672Z" style="fill:#ffe094; stroke-width:0px;"/><path d="M59.73535156,48.10888672c-2.64111328,0-6.32421875-1.89306641-6.73535156-2.10888672v-8c5.98242188,3.53222656,9.63818359,7.23291016,8.89013672,9-.19042969.44970703-.53808594.76757812-1.03271484.94482422-.3046875.10888672-.68212891.1640625-1.12207031.1640625Z" style="fill:#ffe094; stroke-width:0px;"/><path d="M17,63c-3.30859375,0-6-2.69140625-6-6V25h42v32c0,3.30859375-2.69140625,6-6,6h-30Z" style="fill:#af92ff; stroke-width:0px;"/><path d="M13.93652344,31c-.59521484,0-1.15527344-.26220703-1.53662109-.71972656l-3.93652344-4.72412109c-.29882812-.35839844-.46337891-.81298828-.46337891-1.28027344v-7.27587891h48v7.27587891c0,.46728516-.16455078.921875-.46337891,1.28027344l-3.93701172,4.72412109c-.38134766.45751953-.94091797.71972656-1.53613281.71972656H13.93652344Z" style="fill:#907ff7; stroke-width:0px;"/><rect x="4" y="1" width="56" height="16" rx="3" ry="3" style="fill:#af92ff; stroke-width:0px;"/><rect x="20" y="1" width="6" height="39" style="fill:#ffe094; stroke-width:0px;"/><rect x="38" y="1" width="6" height="39" style="fill:#ffe094; stroke-width:0px;"/><rect x="18" y="16" width="10" height="6" rx="1" ry="1" style="fill:#ffcd7d; stroke-width:0px;"/><rect x="36" y="16" width="10" height="6" rx="1" ry="1" style="fill:#ffcd7d; stroke-width:0px;"/><rect x="17" y="40" width="30" height="17" rx="2" ry="2" style="fill:#907ff7; stroke-width:0px;"/><path d="M22,49l-5-5v-2c0-1.10302734.89697266-2,2-2h26c1.10302734,0,2,.89697266,2,2v2l-5,5h-20Z" style="fill:#7468ea; stroke-width:0px;"/><rect x="29" y="46" width="6" height="6" style="fill:#ffcd7d; stroke-width:0px;"/><path d="M54,37.43371582v-8.46838379l2.30859375-2.76513672c.44580078-.53564453.69140625-1.21728516.69140625-1.92041016v-6.27978516c2.20556641,0,4-1.79443359,4-4V4c0-2.20556641-1.79443359-4-4-4H7C4.79443359,0,3,1.79443359,3,4v10c0,2.20556641,1.79443359,4,4,4v6.27978516c0,.703125.24560547,1.38476562.69238281,1.92089844l2.30761719,2.76452637v8.46850586c-2.97723389,1.80609131-10.22106934,6.62567139-8.81103516,9.95593262.29980469.70800781.85888672,1.22558594,1.61669922,1.49658203.13653564.04882812.28820801.07440186.43566895.10644531l1.10632324,8.87304688c.44189453,3.49707031,3.43066406,6.13427734,6.95214844,6.13427734h41.40039062c3.52148438,0,6.51025391-2.63720703,6.95214844-6.13623047l1.10632324-8.87109375c.14746094-.03204346.2991333-.05761719.43566895-.10644531.7578125-.27099609,1.31689453-.78857422,1.61669922-1.49658203,1.41003418-3.33026123-5.83380127-8.14984131-8.81103516-9.95593262ZM55,24.27978516c0,.23291016-.08300781.46630859-.22753906.63964844l-3.94384766,4.72412109c-.18945312.22998047-.46240234.35644531-.76855469.35644531h-5.06005859v-7c1.10302734,0,2-.89697266,2-2v-3h8v6.27978516ZM18,46.4140625l3.29296875,3.29296875c.1875.1875.44189453.29296875.70703125.29296875h6v2c0,.55224609.44775391,1,1,1h6c.55224609,0,1-.44775391,1-1v-2h6c.26513672,0,.51953125-.10546875.70703125-.29296875l3.29296875-3.29296875v8.5859375c0,.55126953-.44873047,1-1,1h-26c-.55126953,0-1-.44873047-1-1v-8.5859375ZM34,51h-4v-4h4v4ZM46,43.5859375l-4.4140625,4.4140625h-5.5859375v-2c0-.55224609-.44775391-1-1-1h-6c-.55224609,0-1,.44775391-1,1v2h-5.5859375l-4.4140625-4.4140625v-1.5859375c0-.55126953.44873047-1,1-1h26c.55126953,0,1,.44873047,1,1v1.5859375ZM27,17l.00146484,4h-8.00146484v-4h8ZM27,2h10v13c-.73712158,0-1.375.40509033-1.72186279,1h-6.55627441c-.34686279-.59490967-.98474121-1-1.72186279-1V2ZM45,17l.00146484,4h-8.00146484v-4h8ZM27,39v-7h10v7h-10ZM37,30h-10v-7c1.10302734,0,2-.89697266,2-2v-3h6v3c0,1.10302734.89697266,2,2,2v7ZM21,23h4v16h-4v-16ZM39,39v-16h4v16h-4ZM59,4v10c0,1.10302734-.89697266,2-2,2h-10.27813721c-.34686279-.59490967-.98474121-1-1.72186279-1V2h12c1.10302734,0,2,.89697266,2,2ZM43,2v13h-4V2h4ZM25,2v13h-4V2h4ZM5,14V4c0-1.10302734.89697266-2,2-2h12v13c-.73712158,0-1.375.40509033-1.72186279,1H7c-1.10302734,0-2-.89697266-2-2ZM9,24.27978516v-6.27978516h8v3c0,1.10302734.89697266,2,2,2v7h-5.06005859c-.30615234,0-.57910156-.12646484-.77246094-.36083984l-3.93945312-4.71923828c-.14501953-.17382812-.22802734-.40722656-.22802734-.64013672ZM10,39.79199219v5.59179688c-2.00878906.97314453-5.15185547,2.10888672-6.52148438,1.61914062-.29248047-.10449219-.390625-.25732422-.44775391-.39257812-.44335938-1.04736328,2.70019531-4.06982422,6.96923828-6.81835938ZM11.29980469,62c-2.51611328,0-4.65185547-1.88525391-4.96777344-4.38330078l-1.06994629-8.57983398c1.67614746-.21813965,3.49395752-.90631104,4.73791504-1.45367432v9.41680908c0,1.95794678.8102417,3.72833252,2.11035156,5h-.81054688ZM17,62c-2.75683594,0-5-2.24316406-5-5v-25.72357178c.53668213.45831299,1.21551514.72357178,1.93994141.72357178h5.06005859v7c-1.65429688,0-3,1.34570312-3,3v13c0,1.65429688,1.34570312,3,3,3h26c1.65429688,0,3-1.34570312,3-3v-13c0-1.65429688-1.34570312-3-3-3v-7h5.06005859c.72540283,0,1.40496826-.26599121,1.93994141-.72320557v25.72320557c0,2.44580078-1.74414062,4.51660156-4.15917969,4.92626953-.26855469.04882812-.55126953.07373047-.84082031.07373047h-30ZM57.66796875,57.61474609c-.31591797,2.5-2.45166016,4.38525391-4.96777344,4.38525391h-.79370117c1.30133057-1.27636719,2.09350586-3.05249023,2.09350586-5v-9.41680908c1.24395752.54736328,3.06182861,1.23553467,4.73791504,1.45367432l-1.06994629,8.57788086ZM60.96923828,46.61035156c-.05712891.13525391-.15527344.28808594-.44775391.39257812-1.36962891.48974609-4.51269531-.64599609-6.52148438-1.61914062v-5.59179688c4.26904297,2.74853516,7.41259766,5.77099609,6.96923828,6.81835938Z" style="fill:#373347; stroke-width:0px;"/></svg>